PS_ngait_og_ss3_kinetics.mot
version=1
nRows=16
nColumns=28
inDegrees=yes
endheader
time	1_ground_force_vx	1_ground_force_vy	1_ground_force_vz	1_ground_force_px	1_ground_force_py	1_ground_force_pz	2_ground_force_vx	2_ground_force_vy	2_ground_force_vz	2_ground_force_px	2_ground_force_py	2_ground_force_pz	3_ground_force_vx	3_ground_force_vy	3_ground_force_vz	3_ground_force_px	3_ground_force_py	3_ground_force_pz	1_ground_torque_x	1_ground_torque_y	1_ground_torque_z	2_ground_torque_x	2_ground_torque_y	2_ground_torque_z	3_ground_torque_x	3_ground_torque_y	3_ground_torque_z
  0.27083333	-45.55553418	680.99551042	 37.97533933	  0.46895425	 -0.00600000	  0.16852821	  0.00000000	  0.00000000	  0.00000000	 -0.30000000	 -0.00600000	  0.20000000	  0.00000000	  0.00000000	  0.00000000	  0.90000000	 -0.00600000	  0.20000000	  0.00000000	  2.74109309	  0.00000000	  0.00000000	  0.00000000	  0.00000000	  0.00000000	  0.00000000	  0.00000000
  0.27166667	-45.21113102	680.15187186	 37.75593053	  0.46922486	 -0.00600000	  0.16851177	  0.00000000	  0.00000000	  0.00000000	 -0.30000000	 -0.00600000	  0.20000000	  0.00000000	  0.00000000	  0.00000000	  0.90000000	 -0.00600000	  0.20000000	  0.00000000	  2.75528115	  0.00000000	  0.00000000	  0.00000000	  0.00000000	  0.00000000	  0.00000000	  0.00000000
  0.27250000	-44.88160082	679.32909386	 37.53972924	  0.46950279	 -0.00600000	  0.16849052	  0.00000000	  0.00000000	  0.00000000	 -0.30000000	 -0.00600000	  0.20000000	  0.00000000	  0.00000000	  0.00000000	  0.90000000	 -0.00600000	  0.20000000	  0.00000000	  2.76932301	  0.00000000	  0.00000000	  0.00000000	  0.00000000	  0.00000000	  0.00000000	  0.00000000
  0.27333333	-44.56929928	678.53051322	 37.33250674	  0.46977923	 -0.00600000	  0.16846137	  0.00000000	  0.00000000	  0.00000000	 -0.30000000	 -0.00600000	  0.20000000	  0.00000000	  0.00000000	  0.00000000	  0.90000000	 -0.00600000	  0.20000000	  0.00000000	  2.78385410	  0.00000000	  0.00000000	  0.00000000	  0.00000000	  0.00000000	  0.00000000	  0.00000000
  0.27416667	-44.27608059	677.76210273	 37.13952663	  0.47004521	 -0.00600000	  0.16842436	  0.00000000	  0.00000000	  0.00000000	 -0.30000000	 -0.00600000	  0.20000000	  0.00000000	  0.00000000	  0.00000000	  0.90000000	 -0.00600000	  0.20000000	  0.00000000	  2.80016610	  0.00000000	  0.00000000	  0.00000000	  0.00000000	  0.00000000	  0.00000000	  0.00000000
  0.27500000	-44.00250490	677.03182793	 36.96308906	  0.47029334	 -0.00600000	  0.16838162	  0.00000000	  0.00000000	  0.00000000	 -0.30000000	 -0.00600000	  0.20000000	  0.00000000	  0.00000000	  0.00000000	  0.90000000	 -0.00600000	  0.20000000	  0.00000000	  2.81978602	  0.00000000	  0.00000000	  0.00000000	  0.00000000	  0.00000000	  0.00000000	  0.00000000
  0.27583333	-43.74754806	676.34514983	 36.80259682	  0.47051996	 -0.00600000	  0.16833773	  0.00000000	  0.00000000	  0.00000000	 -0.30000000	 -0.00600000	  0.20000000	  0.00000000	  0.00000000	  0.00000000	  0.90000000	 -0.00600000	  0.20000000	  0.00000000	  2.84422004	  0.00000000	  0.00000000	  0.00000000	  0.00000000	  0.00000000	  0.00000000	  0.00000000
  0.27666667	-43.50843718	675.70103205	 36.65576008	  0.47072520	 -0.00600000	  0.16830021	  0.00000000	  0.00000000	  0.00000000	 -0.30000000	 -0.00600000	  0.20000000	  0.00000000	  0.00000000	  0.00000000	  0.90000000	 -0.00600000	  0.20000000	  0.00000000	  2.87436267	  0.00000000	  0.00000000	  0.00000000	  0.00000000	  0.00000000	  0.00000000	  0.00000000
  0.27750000	-43.28017790	675.09244286	 36.51900122	  0.47091073	 -0.00600000	  0.16827740	  0.00000000	  0.00000000	  0.00000000	 -0.30000000	 -0.00600000	  0.20000000	  0.00000000	  0.00000000	  0.00000000	  0.90000000	 -0.00600000	  0.20000000	  0.00000000	  2.90962904	  0.00000000	  0.00000000	  0.00000000	  0.00000000	  0.00000000	  0.00000000	  0.00000000
  0.27833333	-43.05578369	674.51035422	 36.38800460	  0.47107772	 -0.00600000	  0.16827426	  0.00000000	  0.00000000	  0.00000000	 -0.30000000	 -0.00600000	  0.20000000	  0.00000000	  0.00000000	  0.00000000	  0.90000000	 -0.00600000	  0.20000000	  0.00000000	  2.94776299	  0.00000000	  0.00000000	  0.00000000	  0.00000000	  0.00000000	  0.00000000	  0.00000000
  0.27916667	-42.82791101	673.94900332	 36.25898485	  0.47122690	 -0.00600000	  0.16829005	  0.00000000	  0.00000000	  0.00000000	 -0.30000000	 -0.00600000	  0.20000000	  0.00000000	  0.00000000	  0.00000000	  0.90000000	 -0.00600000	  0.20000000	  0.00000000	  2.98571843	  0.00000000	  0.00000000	  0.00000000	  0.00000000	  0.00000000	  0.00000000	  0.00000000
  0.28000000	-42.59079511	673.40868570	 36.12956026	  0.47136017	 -0.00600000	  0.16832030	  0.00000000	  0.00000000	  0.00000000	 -0.30000000	 -0.00600000	  0.20000000	  0.00000000	  0.00000000	  0.00000000	  0.90000000	 -0.00600000	  0.20000000	  0.00000000	  3.02081375	  0.00000000	  0.00000000	  0.00000000	  0.00000000	  0.00000000	  0.00000000	  0.00000000
  0.28083333	-42.34106900	672.89246765	 35.99842929	  0.47148215	 -0.00600000	  0.16836050	  0.00000000	  0.00000000	  0.00000000	 -0.30000000	 -0.00600000	  0.20000000	  0.00000000	  0.00000000	  0.00000000	  0.90000000	 -0.00600000	  0.20000000	  0.00000000	  3.05105779	  0.00000000	  0.00000000	  0.00000000	  0.00000000	  0.00000000	  0.00000000	  0.00000000
  0.28166667	-42.07735827	672.39994875	 35.86435882	  0.47160026	 -0.00600000	  0.16840682	  0.00000000	  0.00000000	  0.00000000	 -0.30000000	 -0.00600000	  0.20000000	  0.00000000	  0.00000000	  0.00000000	  0.90000000	 -0.00600000	  0.20000000	  0.00000000	  3.07473888	  0.00000000	  0.00000000	  0.00000000	  0.00000000	  0.00000000	  0.00000000	  0.00000000
  0.28250000	-41.79997651	671.92495300	 35.72549054	  0.47172317	 -0.00600000	  0.16845304	  0.00000000	  0.00000000	  0.00000000	 -0.30000000	 -0.00600000	  0.20000000	  0.00000000	  0.00000000	  0.00000000	  0.90000000	 -0.00600000	  0.20000000	  0.00000000	  3.09017390	  0.00000000	  0.00000000	  0.00000000	  0.00000000	  0.00000000	  0.00000000	  0.00000000
  0.28333333	-41.51091392	671.45927957	 35.57965846	  0.47185848	 -0.00600000	  0.16848880	  0.00000000	  0.00000000	  0.00000000	 -0.30000000	 -0.00600000	  0.20000000	  0.00000000	  0.00000000	  0.00000000	  0.90000000	 -0.00600000	  0.20000000	  0.00000000	  3.09587607	  0.00000000	  0.00000000	  0.00000000	  0.00000000	  0.00000000	  0.00000000	  0.00000000
